<?xml version="1.0" standalone="no"?>
<!DOCTYPE svg PUBLIC "-//W3C//DTD SVG 20010904//EN"
 "http://www.w3.org/TR/2001/REC-SVG-20010904/DTD/svg10.dtd">
<svg version="1.0" xmlns="http://www.w3.org/2000/svg"
 width="150.000000pt" height="150.000000pt" viewBox="0 0 150.000000 150.000000"
 preserveAspectRatio="xMidYMid meet">
<metadata>
Created by potrace 1.11, written by Peter Selinger 2001-2013
</metadata>
<g transform="translate(0.000000,150.000000) scale(0.100000,-0.100000)"
fill="#000000" stroke="none">
<path d="M949 1365 c-2 -2 -121 -6 -263 -9 -142 -3 -263 -9 -268 -14 -5 -5 9
-29 34 -58 38 -42 133 -149 163 -180 5 -6 45 -50 88 -97 51 -56 88 -88 106
-92 17 -3 64 3 112 15 46 12 91 24 99 26 192 46 307 78 315 85 12 12 3 20
-249 233 -76 64 -129 100 -137 91z"/>
<path d="M337 1243 c-4 -8 -11 -34 -22 -93 -3 -14 -7 -36 -10 -50 -3 -14 -8
-41 -11 -60 -3 -19 -7 -37 -9 -40 -2 -3 -6 -26 -10 -50 -3 -25 -8 -53 -11 -62
-23 -77 -20 -122 9 -167 85 -128 312 -426 326 -429 14 -2 24 29 64 205 26 114
50 222 53 238 3 17 7 37 9 45 4 25 -19 60 -112 171 -48 58 -124 149 -168 202
-75 89 -97 108 -108 90z"/>
<path d="M1099 860 c-124 -37 -235 -73 -247 -79 -23 -12 -32 -37 -62 -166 -12
-49 -23 -98 -26 -107 -2 -10 -6 -26 -8 -35 -2 -10 -14 -58 -26 -106 -16 -62
-20 -91 -12 -99 11 -11 50 1 306 96 82 31 154 56 160 56 6 0 24 10 39 23 25
20 32 41 73 227 47 209 51 238 37 250 -4 4 -110 -23 -234 -60z"/>
</g>
</svg>
